{
    "asset" : {
        "generator" : "Khronos glTF Blender I/O v1.6.16",
        "version" : "2.0"
    },
    "scene" : 0,
    "scenes" : [
        {
            "name" : "Scene",
            "nodes" : [
                0
            ]
        }
    ],
    "nodes" : [
        {
            "mesh" : 0,
            "name" : "Icosphere",
            "scale" : [
                0.8950076699256897,
                0.8950076699256897,
                0.8950076699256897
            ],
            "translation" : [
                0.24690842628479004,
                0.16093981266021729,
                0.01042783260345459
            ]
        }
    ],
    "materials" : [
        {
            "doubleSided" : true,
            "name" : "Material.002",
            "pbrMetallicRoughness" : {
                "metallicFactor" : 0,
                "roughnessFactor" : 0.5
            }
        },
        {
            "alphaMode" : "BLEND",
            "doubleSided" : true,
            "name" : "Material.001",
            "pbrMetallicRoughness" : {
                "baseColorFactor" : [
                    0.17220968008041382,
                    0.7374112606048584,
                    0.8000000715255737,
                    1
                ],
                "metallicFactor" : 0,
                "roughnessFactor" : 0.5
            }
        }
    ],
    "meshes" : [
        {
            "name" : "Icosphere.001",
            "primitives" : [
                {
                    "attributes" : {
                        "POSITION" : 0,
                        "NORMAL" : 1,
                        "TEXCOORD_0" : 2,
                        "COLOR_0" : 3
                    },
                    "indices" : 4,
                    "material" : 0
                },
                {
                    "attributes" : {
                        "POSITION" : 5,
                        "NORMAL" : 6,
                        "TEXCOORD_0" : 7,
                        "COLOR_0" : 8
                    },
                    "indices" : 9,
                    "material" : 1
                }
            ]
        }
    ],
    "accessors" : [
        {
            "bufferView" : 0,
            "componentType" : 5126,
            "count" : 10338,
            "max" : [
                0.9398819804191589,
                0.867459237575531,
                0.927925705909729
            ],
            "min" : [
                -0.9195816516876221,
                -0.940181314945221,
                -0.9691131114959717
            ],
            "type" : "VEC3"
        },
        {
            "bufferView" : 1,
            "componentType" : 5126,
            "count" : 10338,
            "type" : "VEC3"
        },
        {
            "bufferView" : 2,
            "componentType" : 5126,
            "count" : 10338,
            "type" : "VEC2"
        },
        {
            "bufferView" : 3,
            "componentType" : 5123,
            "count" : 10338,
            "normalized" : true,
            "type" : "VEC4"
        },
        {
            "bufferView" : 4,
            "componentType" : 5123,
            "count" : 10338,
            "type" : "SCALAR"
        },
        {
            "bufferView" : 5,
            "componentType" : 5126,
            "count" : 2521,
            "max" : [
                0.8725447058677673,
                0.27562767267227173,
                0.8786065578460693
            ],
            "min" : [
                -0.8824943900108337,
                -1.179140567779541,
                -0.9291459918022156
            ],
            "type" : "VEC3"
        },
        {
            "bufferView" : 6,
            "componentType" : 5126,
            "count" : 2521,
            "type" : "VEC3"
        },
        {
            "bufferView" : 7,
            "componentType" : 5126,
            "count" : 2521,
            "type" : "VEC2"
        },
        {
            "bufferView" : 8,
            "componentType" : 5123,
            "count" : 2521,
            "normalized" : true,
            "type" : "VEC4"
        },
        {
            "bufferView" : 9,
            "componentType" : 5123,
            "count" : 2832,
            "type" : "SCALAR"
        }
    ],
    "bufferViews" : [
        {
            "buffer" : 0,
            "byteLength" : 124056,
            "byteOffset" : 0
        },
        {
            "buffer" : 0,
            "byteLength" : 124056,
            "byteOffset" : 124056
        },
        {
            "buffer" : 0,
            "byteLength" : 82704,
            "byteOffset" : 248112
        },
        {
            "buffer" : 0,
            "byteLength" : 82704,
            "byteOffset" : 330816
        },
        {
            "buffer" : 0,
            "byteLength" : 20676,
            "byteOffset" : 413520
        },
        {
            "buffer" : 0,
            "byteLength" : 30252,
            "byteOffset" : 434196
        },
        {
            "buffer" : 0,
            "byteLength" : 30252,
            "byteOffset" : 464448
        },
        {
            "buffer" : 0,
            "byteLength" : 20168,
            "byteOffset" : 494700
        },
        {
            "buffer" : 0,
            "byteLength" : 20168,
            "byteOffset" : 514868
        },
        {
            "buffer" : 0,
            "byteLength" : 5664,
            "byteOffset" : 535036
        }
    ],
    "buffers" : [
        {
            "byteLength" : 540700,
            "uri" : "data:application/octet-stream;base64,"
        }
    ]
}
